<svg id="Livello_1" data-name="Livello 1" xmlns="http://www.w3.org/2000/svg" viewBox="0 0 850.72 572.94">
  <defs>
    <style>
      .cls-1 {
        fill: #bcd253;
      }

      .cls-2 {
        fill: #fafbf1;
      }

      .cls-10, .cls-11, .cls-13, .cls-2, .cls-3, .cls-4, .cls-5, .cls-6, .cls-7, .cls-8, .cls-9 {
        fill-rule: evenodd;
      }

      .cls-3 {
        fill: #fcfcf6;
      }

      .cls-4 {
        fill: #fafbf2;
      }

      .cls-5 {
        fill: #fafcf3;
      }

      .cls-6 {
        fill: #bed357;
      }

      .cls-7 {
        fill: #cfdd81;
      }

      .cls-8 {
        fill: #c9da78;
      }

      .cls-9 {
        fill: #e2eab1;
      }

      .cls-10 {
        fill: #dce6a2;
      }

      .cls-11 {
        fill: #ecf2d2;
      }

      .cls-12, .cls-13 {
        fill: none;
        stroke-miterlimit: 10;
      }

      .cls-12 {
        stroke: #fffffe;
      }

      .cls-13 {
        stroke: #f7f9e9;
        stroke-width: 22.04px;
        opacity: 0.32;
      }

      .cls-14 {
        fill: #fff;
      }
    </style>
  </defs>
  <ellipse class="cls-1" cx="425.36" cy="286.47" rx="425.36" ry="286.47"/>
  <path class="cls-2" d="M870.89,312a289.06,289.06,0,0,1,29,.73Q882,323.62,865.61,335.18a12.68,12.68,0,0,1-7.91,1.45A253.37,253.37,0,0,1,870.89,312Z" transform="translate(-221.81 -119.2)"/>
  <path class="cls-3" d="M419.8,476q2.81,3.42,7.91,2.52V387.71q4.8-19.69,26.38-20.19,29.79,2,42.21,27.76a105.32,105.32,0,0,1,5.28,37.86q-8.9,48.87-60.68,53a219.21,219.21,0,0,0-2.63,48H427.71a219.21,219.21,0,0,0-2.63-48q-56.94-7.78-58-63.09.07-38.61,36.93-54.26A18,18,0,0,1,419.8,370Q386,386.6,393.42,423a60.67,60.67,0,0,0,9.23,40.38A41,41,0,0,0,419.8,476Z" transform="translate(-221.81 -119.2)"/>
  <path class="cls-4" d="M704.7,367.52A27.11,27.11,0,0,1,720.52,370q14.34,42.43,31.66,83.28,13.53-22.11,25.06-45.42-.5-17.77-2.64-35.33,10.92-8.34,23.74-2.53a53,53,0,0,1-2.63,27.76l-47.49,85.81a17.7,17.7,0,0,1-11.87,2.52q-13.44-43-27.7-85.8Q701.86,381.6,681,380.14A202.06,202.06,0,0,0,704.7,367.52Z" transform="translate(-221.81 -119.2)"/>
  <path class="cls-3" d="M918.37,380.14a24.57,24.57,0,0,0,4,15.14q.66,61.22,3.95,121.14a100.71,100.71,0,0,1,2.64,20.18H905.18q-2.45-72.48-5.28-143.84-14.5-18.25-34.29-3.79l-9.23,8.83q-2,42.88-1.32,85.81H831.32Q832,433.12,830,382.66q-17.24-5.73-19.79,12.62-6-32.71,29-26.5,14.25,4.8,17.15,18.93,20.52-28.45,54.08-16.4A37.39,37.39,0,0,1,918.37,380.14Z" transform="translate(-221.81 -119.2)"/>
  <path class="cls-5" d="M567.52,367.52A36.09,36.09,0,0,1,586,370q-21.54,3-33,20.19a147.34,147.34,0,0,0-5.28,63.09q6.5,35.49,36.93,15.15l7.92-15.15Q589,433.42,586,413q-3.47-17.31,11.87-25.24a11.72,11.72,0,0,1,10.55,5.05,359.26,359.26,0,0,1-2.64,65.61l11.88,16.41q17.4,5.21,27.69-8.84A118.27,118.27,0,0,0,648,397.8Q637.35,373.46,609.73,370q45.88-5.48,64.63,35.34,10,42.53-19.78,74.44-35,17.79-55.4-13.88Q582.41,491,551.7,484.87,527.47,472,521.36,445.75,510.07,386.49,567.52,367.52Z" transform="translate(-221.81 -119.2)"/>
  <path class="cls-6" d="M446.18,476a743.22,743.22,0,0,1-2.64-88.33q2.5-5.47,9.23-5,32.13,13.45,27.7,47.95l-1.32,17.67a90.29,90.29,0,0,0-10.55,17.66A38.94,38.94,0,0,1,446.18,476Z" transform="translate(-221.81 -119.2)"/>
  <path class="cls-7" d="M443.54,386.71A743.22,743.22,0,0,0,446.18,475a2.84,2.84,0,0,1-2.64,2.52A395.45,395.45,0,0,1,443.54,386.71Z" transform="translate(-221.81 -119.2)"/>
  <path class="cls-8" d="M899.9,392.76q2.85,71.37,5.28,143.84a13.7,13.7,0,0,1-4-7.57Q899.24,460.92,899.9,392.76Z" transform="translate(-221.81 -119.2)"/>
  <path class="cls-9" d="M918.37,380.14A23.73,23.73,0,0,1,925,392.76q2,61.82,1.32,123.66Q923,456.5,922.33,395.28A24.57,24.57,0,0,1,918.37,380.14Z" transform="translate(-221.81 -119.2)"/>
  <path class="cls-10" d="M496.3,395.28a23.82,23.82,0,0,1,6.6,12.62,42,42,0,0,1-1.32,25.24A105.32,105.32,0,0,0,496.3,395.28Z" transform="translate(-221.81 -119.2)"/>
  <path class="cls-11" d="M425.08,486.13a219.21,219.21,0,0,1,2.63,48h10.56a219.21,219.21,0,0,1,2.63-48V536.6H425.08Z" transform="translate(-221.81 -119.2)"/>
  <path class="cls-12" d="M477.26,284.06" transform="translate(-221.81 -119.2)"/>
  <path class="cls-13" d="M381.13,397.24a116.58,116.58,0,0,0,90.93-6.61c28.22-14.46,51.34-40.84,63.61-72.58A565.26,565.26,0,0,0,572,541.34a1558.78,1558.78,0,0,1,75.75-288.45l48,140.45c2.4,7,6.06,15.13,12.77,15.8,6.3.63,11.14-5.8,14.77-11.57l34.72-55.18,22.47,56.44c2,5,4.14,10.25,8,13.66,10.46,9.24,26.11,0,34.38-11.64,5.63-7.92,10-17,16.19-24.3s15.25-12.87,24.15-10.93c10.2,2.21,16.64,13,23.28,21.88s17.18,17.22,26.67,12.54" transform="translate(-221.81 -119.2)"/>
  <g>
    <path class="cls-14" d="M623.17,528.29l.4-.75c.37-.65.72-1.2,1-1.64a5.84,5.84,0,0,1,.85-1,3.26,3.26,0,0,1,.88-.5,2.45,2.45,0,0,1,.91-.16,2.76,2.76,0,0,1,1.72.57,3.61,3.61,0,0,1,1.14,1.64,6.84,6.84,0,0,1,.4,2.45,8.7,8.7,0,0,1-.89,3.82,8.32,8.32,0,0,1-2.35,3,4.87,4.87,0,0,1-3,1.13,2.78,2.78,0,0,1-1.5-.38,3.54,3.54,0,0,1-1.11-1.31l-.09.21-.08.28c-.55,1.77-1,3.07-1.31,3.91a4.34,4.34,0,0,1-.84,1.53.91.91,0,0,1-.65.26,1.24,1.24,0,0,1-1.13-.71,4,4,0,0,1-.41-2,21.43,21.43,0,0,1,.31-3.35,37.91,37.91,0,0,1,.84-4,33.37,33.37,0,0,1,1.2-3.69,10.21,10.21,0,0,1,.95-1.78,4.05,4.05,0,0,1,1-1.1,1.35,1.35,0,0,1,.73-.21,1.22,1.22,0,0,1,.9.32,1.26,1.26,0,0,1,.31.91,6.41,6.41,0,0,1-.1,1.1c0,.39-.09.84-.14,1.35Zm-1,5.41a1.35,1.35,0,0,0,1.35,1,1.79,1.79,0,0,0,1.3-.63,4.54,4.54,0,0,0,1-1.7,7.08,7.08,0,0,0,.36-2.26,7.76,7.76,0,0,0-.14-1.62q-.15-.69-.33-.69c-.08,0-.3.23-.64.68a12.79,12.79,0,0,0-1,1.56,23.34,23.34,0,0,0-1.62,3A5.08,5.08,0,0,0,622.21,533.7Z" transform="translate(-221.81 -119.2)"/>
    <path class="cls-14" d="M640,521.13v-.21c0-.31,0-.46-.13-.46s-.28.16-.51.5a8.09,8.09,0,0,0-.63,1.13,27.74,27.74,0,0,0-1.23,3.36,28.32,28.32,0,0,0-.83,3.54c-.06.45-.14,1-.21,1.48l.06,0c.85-.87,1.48-1.49,1.89-1.85s1-.78,1.62-1.25a3.93,3.93,0,0,1,2.05-.86,1,1,0,0,1,.81.38,1.66,1.66,0,0,1,.28,1,5.71,5.71,0,0,1-.15,1.09,14.66,14.66,0,0,0-.27,2.53,7.06,7.06,0,0,0,.08,1,15.58,15.58,0,0,0,.42,1.64,9.23,9.23,0,0,1,.29,1c0,.12-.14.26-.42.43a4.58,4.58,0,0,1-2.47.89,1.74,1.74,0,0,1-1.51-.9,4.39,4.39,0,0,1-.57-2.36,9.47,9.47,0,0,1,.11-1.38l-.06-.05c-1.21,1.24-2,2.07-2.42,2.51-1.5,1.45-2.66,2.18-3.47,2.18-.38,0-.68-.25-.92-.74a4.33,4.33,0,0,1-.37-1.94,18.63,18.63,0,0,1,1.59-6.55q.63-1.54,1.35-3c.47-.94.92-1.75,1.35-2.44a9.53,9.53,0,0,1,1-1.26,6.49,6.49,0,0,1,1-.9,4,4,0,0,1,1.07-.54,3.5,3.5,0,0,1,1.09-.18,3,3,0,0,1,2.22.84A2.87,2.87,0,0,1,643,522a4.38,4.38,0,0,1-.52,1.94,7.75,7.75,0,0,1-1.46,2,7,7,0,0,1-1.36,1,2.55,2.55,0,0,1-1.17.45.32.32,0,0,1-.23-.08.29.29,0,0,1-.1-.23,2.6,2.6,0,0,1,.33-.83,13.08,13.08,0,0,0,.75-1.71,15.38,15.38,0,0,0,.56-1.91A7.64,7.64,0,0,0,640,521.13Z" transform="translate(-221.81 -119.2)"/>
    <path class="cls-14" d="M652.93,523.83c1.26,0,1.9.15,1.9.45s-.29.52-.86.54a4.19,4.19,0,0,0-1.91.59,5.29,5.29,0,0,0-1.58,1.42,7.18,7.18,0,0,0-1.08,2,7.26,7.26,0,0,0-.39,2.39,3.55,3.55,0,0,0,.65,2.22,2,2,0,0,0,1.69.85,2.09,2.09,0,0,0,1.69-1,3.82,3.82,0,0,0,.72-2.31,4.67,4.67,0,0,0-.45-2A4.21,4.21,0,0,0,652,527.4q-.36-.28-.36-.42c0-.12.17-.3.52-.55a6.34,6.34,0,0,1,1.3-.66,3.88,3.88,0,0,1,1.22-.26,2.13,2.13,0,0,1,1.09.3,2.91,2.91,0,0,1,.91.85,4.26,4.26,0,0,1,.6,1.27,5.34,5.34,0,0,1,.21,1.53,7.34,7.34,0,0,1-.51,2.66,6,6,0,0,1-1.33,2.12,8.42,8.42,0,0,1-2.57,1.68,7.17,7.17,0,0,1-2.87.66,7.74,7.74,0,0,1-2.62-.46,5.53,5.53,0,0,1-2.06-1.2,3.9,3.9,0,0,1-1-2.89,6.65,6.65,0,0,1,.73-2.94,9.34,9.34,0,0,1,2-2.67,9.94,9.94,0,0,1,2.73-1.9A7.1,7.1,0,0,1,652.93,523.83Z" transform="translate(-221.81 -119.2)"/>
    <path class="cls-14" d="M664,529.91l.76-.89c.78-.86,1.39-1.5,1.84-1.92a6.15,6.15,0,0,1,1.22-.91,2.46,2.46,0,0,1,1.1-.28,1.52,1.52,0,0,1,1.27.49,2.89,2.89,0,0,1,.36,1.67,14.3,14.3,0,0,1-.1,1.46,20.89,20.89,0,0,0-.15,2.41,12.68,12.68,0,0,0,.13,2.06,7.36,7.36,0,0,0,.26,1,2.58,2.58,0,0,1,.13.62.39.39,0,0,1-.15.32,3.74,3.74,0,0,1-1,.59,3.13,3.13,0,0,1-1.09.26,2,2,0,0,1-1.32-.5,3.17,3.17,0,0,1-.91-1.37,5.55,5.55,0,0,1-.33-2,12.18,12.18,0,0,1,.16-1.74l0,0c-.37.41-.66.73-.89,1s-.43.46-.62.68c-1,1.08-1.76,2.06-2.42,2.93-.25.34-.48.63-.7.89a1.46,1.46,0,0,1-1.06.47,1.66,1.66,0,0,1-1.32-.61,2.38,2.38,0,0,1-.51-1.58,10,10,0,0,1,.14-1.46c.09-.57.22-1.19.37-1.84s.35-1.33.56-2,.45-1.35.71-2a7.14,7.14,0,0,1,1.42-2.44,1.88,1.88,0,0,1,1.38-.57c.88,0,1.32.57,1.32,1.72a17.81,17.81,0,0,1-.52,3.6Z" transform="translate(-221.81 -119.2)"/>
    <path class="cls-14" d="M676.22,533.06a.87.87,0,0,0,1,.76,4.66,4.66,0,0,0,2.47-1.11,2.85,2.85,0,0,1,1.2-.65,1.39,1.39,0,0,1,.71.2q.33.21.33.42a1.07,1.07,0,0,1-.37.6,14.69,14.69,0,0,1-3.24,2.38,9.26,9.26,0,0,1-1.62.67,5,5,0,0,1-1.45.25,3.5,3.5,0,0,1-2.54-.91,3.19,3.19,0,0,1-1-2.42,8.23,8.23,0,0,1,.5-2.61,11.51,11.51,0,0,1,1.35-2.72,9.22,9.22,0,0,1,2.46-2.48,6.37,6.37,0,0,1,3.46-1.19,2.37,2.37,0,0,1,1.87.76,3,3,0,0,1,.68,2.07,5,5,0,0,1-.54,2.15,7.72,7.72,0,0,1-1.59,2.14,8.22,8.22,0,0,1-1.7,1.35,3,3,0,0,1-1.45.48A1.33,1.33,0,0,1,676.22,533.06Zm0-.4a4,4,0,0,0,.89-.79,6,6,0,0,0,1-1.89,7.71,7.71,0,0,0,.46-1.56,8.7,8.7,0,0,0,.16-1.62c0-.46-.09-.7-.29-.7s-.68.6-1.24,1.79a15.81,15.81,0,0,0-.81,2.16,6.65,6.65,0,0,0-.31,1.84A3.93,3.93,0,0,0,676.19,532.66Zm2-11.84a11.35,11.35,0,0,0,1.3-1.71q.35-.51.42-.6a.64.64,0,0,1,.28-.16,13.15,13.15,0,0,1,1.44-.41,6.92,6.92,0,0,1,1.21-.21c.26,0,.39.11.39.34,0,.5-.47,1.19-1.4,2.08a9.69,9.69,0,0,1-2.14,1.59,4.4,4.4,0,0,1-2,.54q-.54,0-.54-.39a.39.39,0,0,1,.1-.27,5.06,5.06,0,0,1,.39-.33A6.18,6.18,0,0,0,678.18,520.82Z" transform="translate(-221.81 -119.2)"/>
    <path class="cls-14" d="M492.71,563.93l-.06.26a4.28,4.28,0,0,1,0,.62,6.82,6.82,0,0,1-.14,1,1.9,1.9,0,0,1-.26.66,3.81,3.81,0,0,1-.49.55,2.73,2.73,0,0,1-1.86.85,1.24,1.24,0,0,1-1.12-.56,3.31,3.31,0,0,1-.37-1.8,16.39,16.39,0,0,1,.23-2.44,21.77,21.77,0,0,1,.53-2.61l.11-.33a1.23,1.23,0,0,1,.07-.32,16.31,16.31,0,0,1,.87-2.56,4.29,4.29,0,0,1,.95-1.34,1.76,1.76,0,0,1,1.12-.39c.6,0,1,.36,1.09,1.09a2.36,2.36,0,0,0,.34-.36,4.72,4.72,0,0,1,.57-.59.84.84,0,0,1,.47-.14c.73,0,1.09.72,1.09,2.16a10.15,10.15,0,0,1-.25,2.28,6.79,6.79,0,0,1-.64,1.8c-.26.47-.52.7-.77.7s-.42-.53-.42-1.59a7.49,7.49,0,0,0-.09-1.31,2,2,0,0,0-.3-.74,9.28,9.28,0,0,0-.5,3.25C492.77,563.06,492.73,563.68,492.71,563.93Z" transform="translate(-221.81 -119.2)"/>
    <path class="cls-14" d="M498.69,567.93a1.54,1.54,0,0,1-1-.52,2.89,2.89,0,0,1-.67-1.1,4.93,4.93,0,0,1-.2-1.53,16.92,16.92,0,0,1,.78-4.73,10.94,10.94,0,0,1,1.77-3.81,1.34,1.34,0,0,1,1.1-.5,1.37,1.37,0,0,1,1.18.68,3.08,3.08,0,0,1,.45,1.76,18.39,18.39,0,0,1-.46,3.78,37.08,37.08,0,0,1-1.3,4.5,2.54,2.54,0,0,1-.82,1.27,1.47,1.47,0,0,1-.77.2Zm1.53-12.76c-.79,0-1.19-.5-1.19-1.43a4.47,4.47,0,0,1,.35-1.62,3.77,3.77,0,0,1,.79-1.37,1.27,1.27,0,0,1,1.07-.44,1.23,1.23,0,0,1,.93.31,1.47,1.47,0,0,1,.3,1,4.79,4.79,0,0,1-.31,1.7,3.64,3.64,0,0,1-.83,1.31,1.58,1.58,0,0,1-1.07.5Z" transform="translate(-221.81 -119.2)"/>
    <path class="cls-14" d="M510.29,555.55a2.33,2.33,0,0,1,1.53.56,1.78,1.78,0,0,1,.58,1.4A3.08,3.08,0,0,1,512,559a3.91,3.91,0,0,1-1.11,1.27,2.23,2.23,0,0,1-1.34.5c-.26,0-.39-.09-.39-.28a1.56,1.56,0,0,1,.15-.45,3.69,3.69,0,0,0,.5-1.92c0-.37,0-.55-.13-.55s-.29.15-.51.46a4.56,4.56,0,0,0-.56,1.08,14.06,14.06,0,0,0-.65,2.08,8.55,8.55,0,0,0-.26,1.86,3,3,0,0,0,.26,1.36.81.81,0,0,0,.73.5,2.49,2.49,0,0,0,1.16-.46,7.15,7.15,0,0,0,1.37-1.13c.17-.23.33-.34.47-.34s.3.11.3.34a4,4,0,0,1-1.22,2.83,6.8,6.8,0,0,1-1.92,1.35,4.52,4.52,0,0,1-1.95.52,3.51,3.51,0,0,1-2.51-.95,3.19,3.19,0,0,1-1-2.4,8.26,8.26,0,0,1,.64-3,12.53,12.53,0,0,1,1.76-3,11,11,0,0,1,2.52-2.4,3.49,3.49,0,0,1,2-.69Z" transform="translate(-221.81 -119.2)"/>
    <path class="cls-14" d="M521.8,555q1.89,0,1.89.45c0,.34-.28.52-.85.54a4.19,4.19,0,0,0-1.91.59,5.29,5.29,0,0,0-1.58,1.42,6.94,6.94,0,0,0-1.08,2,7.26,7.26,0,0,0-.39,2.39,3.55,3.55,0,0,0,.65,2.22,2,2,0,0,0,1.69.85,2.06,2.06,0,0,0,1.68-1,3.77,3.77,0,0,0,.73-2.31,4.67,4.67,0,0,0-.45-2,4.21,4.21,0,0,0-1.32-1.59q-.36-.29-.36-.42c0-.12.17-.3.52-.55a6.09,6.09,0,0,1,1.3-.66,3.88,3.88,0,0,1,1.22-.26,2.16,2.16,0,0,1,1.09.3,3,3,0,0,1,.91.85,4.26,4.26,0,0,1,.6,1.27,5.34,5.34,0,0,1,.21,1.53,7.34,7.34,0,0,1-.51,2.66,6,6,0,0,1-1.33,2.12,8.42,8.42,0,0,1-2.57,1.68,7.17,7.17,0,0,1-2.87.66,7.74,7.74,0,0,1-2.62-.46,5.53,5.53,0,0,1-2.06-1.2,3.9,3.9,0,0,1-1-2.89,6.52,6.52,0,0,1,.73-2.94,9.48,9.48,0,0,1,2-2.67,9.94,9.94,0,0,1,2.73-1.9A7.1,7.1,0,0,1,521.8,555Z" transform="translate(-221.81 -119.2)"/>
    <path class="cls-14" d="M532.87,561.11l.76-.89c.78-.86,1.39-1.5,1.84-1.92a6.15,6.15,0,0,1,1.22-.91,2.46,2.46,0,0,1,1.1-.28,1.52,1.52,0,0,1,1.27.49,2.89,2.89,0,0,1,.36,1.67,14.3,14.3,0,0,1-.1,1.46,20.89,20.89,0,0,0-.15,2.41,12.68,12.68,0,0,0,.13,2.06,6.08,6.08,0,0,0,.26,1,2.58,2.58,0,0,1,.13.62.39.39,0,0,1-.15.32,3.74,3.74,0,0,1-1,.59,3.13,3.13,0,0,1-1.09.26,2,2,0,0,1-1.32-.5,3.17,3.17,0,0,1-.91-1.37,5.55,5.55,0,0,1-.33-2,10.88,10.88,0,0,1,.16-1.74l0,0c-.37.41-.66.73-.89,1l-.63.68c-.94,1.08-1.75,2.06-2.41,2.93-.25.34-.48.63-.7.89a1.46,1.46,0,0,1-1.06.47,1.66,1.66,0,0,1-1.32-.61,2.38,2.38,0,0,1-.51-1.58,10,10,0,0,1,.14-1.46c.09-.57.22-1.19.37-1.84s.35-1.33.56-2,.45-1.35.71-2a7.14,7.14,0,0,1,1.42-2.44,1.88,1.88,0,0,1,1.38-.57c.88,0,1.32.57,1.32,1.72a17.81,17.81,0,0,1-.52,3.6Z" transform="translate(-221.81 -119.2)"/>
    <path class="cls-14" d="M549.15,555q1.89,0,1.89.45c0,.34-.28.52-.85.54a4.19,4.19,0,0,0-1.92.59,5.42,5.42,0,0,0-1.58,1.42,7.18,7.18,0,0,0-1.08,2,7.26,7.26,0,0,0-.38,2.39,3.55,3.55,0,0,0,.64,2.22,2,2,0,0,0,1.69.85,2.08,2.08,0,0,0,1.69-1,3.82,3.82,0,0,0,.72-2.31,4.67,4.67,0,0,0-.45-2,4.28,4.28,0,0,0-1.31-1.59c-.25-.19-.37-.33-.37-.42s.17-.3.52-.55a6.43,6.43,0,0,1,1.31-.66,3.82,3.82,0,0,1,1.22-.26,2.1,2.1,0,0,1,1.08.3,2.82,2.82,0,0,1,.91.85,4.26,4.26,0,0,1,.6,1.27,5.34,5.34,0,0,1,.21,1.53,7.55,7.55,0,0,1-.5,2.66,6,6,0,0,1-1.34,2.12,8.42,8.42,0,0,1-2.57,1.68,7.13,7.13,0,0,1-2.86.66,7.74,7.74,0,0,1-2.62-.46,5.57,5.57,0,0,1-2.07-1.2,3.94,3.94,0,0,1-1-2.89,6.63,6.63,0,0,1,.72-2.94,9.68,9.68,0,0,1,2-2.67,10.25,10.25,0,0,1,2.73-1.9A7.15,7.15,0,0,1,549.15,555Z" transform="translate(-221.81 -119.2)"/>
    <path class="cls-14" d="M558.56,568.35a2,2,0,0,0,1.36-.73,2.22,2.22,0,0,0,.62-1.5,1.15,1.15,0,0,0-.37-.89,4.34,4.34,0,0,0-1.77-.78,5.48,5.48,0,0,1-2.62-1.31,1.89,1.89,0,0,1-.58-1.39,5,5,0,0,1,1.06-2.92,8.49,8.49,0,0,1,2.71-2.4,6.72,6.72,0,0,1,3.33-.93,3.2,3.2,0,0,1,1.52.38,3.08,3.08,0,0,1,1.13,1,2.43,2.43,0,0,1,.42,1.37,2.94,2.94,0,0,1-.45,1.49,4.34,4.34,0,0,1-1.15,1.29,2.2,2.2,0,0,1-1.32.52,1.2,1.2,0,0,1-.61-.15c-.18-.11-.26-.22-.26-.33a2,2,0,0,1,.1-.53,8.07,8.07,0,0,0,.28-1.9,2.65,2.65,0,0,0-.48-1.51,4.26,4.26,0,0,0-.82.68,4.39,4.39,0,0,0-.75,1.27,3.79,3.79,0,0,0-.29,1.37,1.15,1.15,0,0,0,.21.73,1.64,1.64,0,0,0,.69.47,12.41,12.41,0,0,0,1.44.41,10.11,10.11,0,0,1,2.27.77,3.35,3.35,0,0,1,.47.37,1.88,1.88,0,0,1,.48,1.34,3.37,3.37,0,0,1-.54,1.77,7.81,7.81,0,0,1-1.69,1.85,7.9,7.9,0,0,1-2.43,1.47,7.54,7.54,0,0,1-2.66.45,3.88,3.88,0,0,1-2.22-.56,1.74,1.74,0,0,1-.8-1.52,2.27,2.27,0,0,1,.53-1.39,4.11,4.11,0,0,1,1.33-1.15,3.09,3.09,0,0,1,1.55-.45c.38,0,.57.09.57.26a1.06,1.06,0,0,1-.16.42,3.38,3.38,0,0,0-.5,1.63A1.55,1.55,0,0,0,558.56,568.35Z" transform="translate(-221.81 -119.2)"/>
    <path class="cls-14" d="M573.38,555.55a2.34,2.34,0,0,1,1.54.56,1.8,1.8,0,0,1,.57,1.4,3,3,0,0,1-.44,1.53,4,4,0,0,1-1.1,1.27,2.26,2.26,0,0,1-1.34.5c-.26,0-.39-.09-.39-.28a1.56,1.56,0,0,1,.15-.45,3.68,3.68,0,0,0,.49-1.92c0-.37,0-.55-.12-.55s-.29.15-.51.46a4.22,4.22,0,0,0-.56,1.08,14.06,14.06,0,0,0-.65,2.08,8,8,0,0,0-.26,1.86,2.86,2.86,0,0,0,.26,1.36.8.8,0,0,0,.73.5,2.46,2.46,0,0,0,1.15-.46,7.15,7.15,0,0,0,1.37-1.13c.18-.23.34-.34.47-.34s.31.11.31.34a4,4,0,0,1-1.22,2.83,6.71,6.71,0,0,1-1.93,1.35,4.52,4.52,0,0,1-1.94.52,3.54,3.54,0,0,1-2.52-.95,3.18,3.18,0,0,1-1-2.4,8.06,8.06,0,0,1,.64-3,12.49,12.49,0,0,1,1.75-3,11,11,0,0,1,2.52-2.4,3.54,3.54,0,0,1,2-.69Z" transform="translate(-221.81 -119.2)"/>
    <path class="cls-14" d="M580.84,564.26a.87.87,0,0,0,1,.76,4.66,4.66,0,0,0,2.47-1.11,2.79,2.79,0,0,1,1.2-.65,1.39,1.39,0,0,1,.71.2q.33.21.33.42a1.07,1.07,0,0,1-.37.6,14.69,14.69,0,0,1-3.24,2.38,9.26,9.26,0,0,1-1.62.67,5,5,0,0,1-1.45.25,3.5,3.5,0,0,1-2.54-.91,3.16,3.16,0,0,1-1-2.42,8,8,0,0,1,.5-2.61,11.51,11.51,0,0,1,1.35-2.72,9.22,9.22,0,0,1,2.46-2.48,6.37,6.37,0,0,1,3.46-1.19,2.37,2.37,0,0,1,1.87.76,3,3,0,0,1,.68,2.07,5,5,0,0,1-.54,2.15,7.72,7.72,0,0,1-1.59,2.14,8.22,8.22,0,0,1-1.7,1.35,3,3,0,0,1-1.45.48A1.33,1.33,0,0,1,580.84,564.26Zm0-.4a4,4,0,0,0,.89-.79,6.19,6.19,0,0,0,1-1.89,7.71,7.71,0,0,0,.46-1.56,8.7,8.7,0,0,0,.16-1.62c0-.46-.09-.7-.29-.7s-.69.6-1.24,1.79a15.81,15.81,0,0,0-.81,2.16,6.65,6.65,0,0,0-.31,1.84A3.93,3.93,0,0,0,580.81,563.86Z" transform="translate(-221.81 -119.2)"/>
    <path class="cls-14" d="M591.83,563.93l-.05.26c0,.14,0,.35,0,.62a8.49,8.49,0,0,1-.14,1,1.9,1.9,0,0,1-.27.66,4.36,4.36,0,0,1-.48.55,2.77,2.77,0,0,1-1.87.85,1.25,1.25,0,0,1-1.12-.56,3.42,3.42,0,0,1-.36-1.8,16.21,16.21,0,0,1,.22-2.44,23.81,23.81,0,0,1,.54-2.61l.1-.33a1.41,1.41,0,0,1,.08-.32,16.5,16.5,0,0,1,.86-2.56,4.29,4.29,0,0,1,1-1.34,1.78,1.78,0,0,1,1.12-.39c.6,0,1,.36,1.09,1.09a2,2,0,0,0,.34-.36,4,4,0,0,1,.58-.59.82.82,0,0,1,.47-.14c.72,0,1.09.72,1.09,2.16a10.15,10.15,0,0,1-.26,2.28,6.79,6.79,0,0,1-.64,1.8c-.26.47-.51.7-.77.7s-.41-.53-.41-1.59a7.33,7.33,0,0,0-.1-1.31,1.69,1.69,0,0,0-.3-.74,9.36,9.36,0,0,0-.49,3.25C591.9,563.06,591.86,563.68,591.83,563.93Z" transform="translate(-221.81 -119.2)"/>
    <path class="cls-14" d="M600.36,564.26a.87.87,0,0,0,1,.76,4.68,4.68,0,0,0,2.48-1.11,2.83,2.83,0,0,1,1.19-.65,1.39,1.39,0,0,1,.71.2q.33.21.33.42a1,1,0,0,1-.37.6,13,13,0,0,1-1.55,1.31,13.69,13.69,0,0,1-1.68,1.07,9.67,9.67,0,0,1-1.63.67,4.85,4.85,0,0,1-1.45.25,3.53,3.53,0,0,1-2.54-.91,3.19,3.19,0,0,1-1-2.42,8.23,8.23,0,0,1,.5-2.61,11.93,11.93,0,0,1,1.36-2.72,9.07,9.07,0,0,1,2.46-2.48,6.32,6.32,0,0,1,3.45-1.19,2.36,2.36,0,0,1,1.87.76,2.94,2.94,0,0,1,.68,2.07,5,5,0,0,1-.54,2.15,7.72,7.72,0,0,1-1.59,2.14,8.18,8.18,0,0,1-1.69,1.35,3,3,0,0,1-1.46.48A1.4,1.4,0,0,1,600.36,564.26Zm0-.4a3.89,3.89,0,0,0,.88-.79,6.22,6.22,0,0,0,1-1.89,8.41,8.41,0,0,0,.45-1.56,8.76,8.76,0,0,0,.17-1.62c0-.46-.1-.7-.29-.7s-.69.6-1.25,1.79a14.53,14.53,0,0,0-.8,2.16,6.71,6.71,0,0,0-.32,1.84A4.11,4.11,0,0,0,600.34,563.86Z" transform="translate(-221.81 -119.2)"/>
    <path class="cls-14" d="M615.82,567.93a1.56,1.56,0,0,1-1-.52,3,3,0,0,1-.66-1.1,4.93,4.93,0,0,1-.2-1.53,16.92,16.92,0,0,1,.78-4.73,10.94,10.94,0,0,1,1.77-3.81,1.32,1.32,0,0,1,1.09-.5,1.38,1.38,0,0,1,1.19.68,3.08,3.08,0,0,1,.45,1.76,19.11,19.11,0,0,1-.46,3.78,35.47,35.47,0,0,1-1.31,4.5,2.53,2.53,0,0,1-.81,1.27,1.5,1.5,0,0,1-.77.2Zm1.53-12.76c-.8,0-1.2-.5-1.2-1.43a4.69,4.69,0,0,1,.35-1.62,3.92,3.92,0,0,1,.8-1.37,1.4,1.4,0,0,1,.46-.34,1.51,1.51,0,0,1,.6-.1,1.24,1.24,0,0,1,.94.31,1.47,1.47,0,0,1,.29,1,4.58,4.58,0,0,1-.31,1.7,3.39,3.39,0,0,1-.83,1.31,1.54,1.54,0,0,1-1.06.5Z" transform="translate(-221.81 -119.2)"/>
    <path class="cls-14" d="M627.31,558.31a23.63,23.63,0,0,0,.85-3,12.29,12.29,0,0,0,.35-2.41c0-.15,0-.23-.13-.23s-.37.3-.71.91a12.3,12.3,0,0,0-.85,1.85c-.49,1.38-.87,2.52-1.14,3.43a20.84,20.84,0,0,0-.55,2.29A11.85,11.85,0,0,0,625,563a3,3,0,0,0,.18,1.21.62.62,0,0,0,.59.38,2.76,2.76,0,0,0,1.56-.62,6.69,6.69,0,0,0,1.57-1.61c.36-.5.64-.75.85-.75s.39.2.39.62a4.75,4.75,0,0,1-.85,2.65,6.66,6.66,0,0,1-2.19,2.1,5.24,5.24,0,0,1-2.74.81,3.78,3.78,0,0,1-2.79-1.08,3.81,3.81,0,0,1-1.08-2.82,11,11,0,0,1,.61-3.33,24.94,24.94,0,0,1,3.87-7.36,11.64,11.64,0,0,1,2.41-2.41,2.74,2.74,0,0,1,1.64-.55,2.06,2.06,0,0,1,1.25.43,2.68,2.68,0,0,1,.86,1.19,4.53,4.53,0,0,1,.3,1.68,10.2,10.2,0,0,1-.78,3.9,9.92,9.92,0,0,1-2.17,3.3,7.57,7.57,0,0,1-1.27,1.06,2.17,2.17,0,0,1-1.07.38c-.3,0-.44-.12-.44-.34a1.89,1.89,0,0,1,.33-.73,15.89,15.89,0,0,0,1-2.11c0-.09.07-.19.11-.29Z" transform="translate(-221.81 -119.2)"/>
    <path class="cls-14" d="M645.33,559.49l.39-.74a16.81,16.81,0,0,1,1-1.65,5.86,5.86,0,0,1,.84-1,3.26,3.26,0,0,1,.88-.5,2.51,2.51,0,0,1,.92-.16,2.75,2.75,0,0,1,1.71.57,3.53,3.53,0,0,1,1.14,1.64,6.84,6.84,0,0,1,.4,2.45,8.7,8.7,0,0,1-.89,3.82,8.32,8.32,0,0,1-2.35,3,4.86,4.86,0,0,1-3,1.13,2.79,2.79,0,0,1-1.51-.38,3.54,3.54,0,0,1-1.11-1.31l-.09.21-.07.28c-.55,1.77-1,3.07-1.32,3.91a4,4,0,0,1-.84,1.53.9.9,0,0,1-.65.26,1.24,1.24,0,0,1-1.13-.71,4.05,4.05,0,0,1-.4-2,22.55,22.55,0,0,1,.3-3.35,38.45,38.45,0,0,1,.84-4,33.37,33.37,0,0,1,1.2-3.69,10.21,10.21,0,0,1,1-1.78,4.22,4.22,0,0,1,1-1.1,1.35,1.35,0,0,1,.73-.21,1.22,1.22,0,0,1,.9.32,1.26,1.26,0,0,1,.32.91,7.6,7.6,0,0,1-.1,1.1c-.06.39-.1.84-.14,1.35Zm-1,5.41a1.35,1.35,0,0,0,1.35,1,1.79,1.79,0,0,0,1.3-.63,4.69,4.69,0,0,0,1-1.7,7.08,7.08,0,0,0,.36-2.26,7.7,7.7,0,0,0-.15-1.62c-.1-.46-.2-.69-.32-.69s-.3.23-.65.68a15.07,15.07,0,0,0-1,1.56,21.48,21.48,0,0,0-1.61,3.05A4.67,4.67,0,0,0,644.36,564.9Z" transform="translate(-221.81 -119.2)"/>
    <path class="cls-14" d="M662.31,564.11v0l0,0a24.43,24.43,0,0,1-2.16,2.27,9.54,9.54,0,0,1-1.82,1.32,3.23,3.23,0,0,1-1.53.45,3.11,3.11,0,0,1-2.34-1,3.29,3.29,0,0,1-.93-2.41,6.16,6.16,0,0,1,.46-2.13,11.08,11.08,0,0,1,1.25-2.41,12.46,12.46,0,0,1,3.35-3.28,7.31,7.31,0,0,1,4-1.38,4.85,4.85,0,0,1,2.67.67,1.94,1.94,0,0,1,1,1.68,3,3,0,0,1-.53,1.58,1.57,1.57,0,0,1,.87.15c.12.1.18.32.18.68a3.57,3.57,0,0,0-.07.52c-.05.84-.07,1.62-.07,2.35,0,.38,0,.67,0,.86s0,.42.05.67,0,.46.08.61a5.07,5.07,0,0,0,.33,1.18,6,6,0,0,1-1.46,1.1,3.08,3.08,0,0,1-1.43.35q-1.95,0-2-3.27C662.29,564.45,662.3,564.25,662.31,564.11Zm.77-2.91-.25.08a5.41,5.41,0,0,1-1.32.25c-.33,0-.49-.08-.49-.25a1.72,1.72,0,0,1,.2-.47,3.7,3.7,0,0,0,.71-2,2.48,2.48,0,0,0-.19-1q-.18-.45-.42-.45c-.13,0-.34.14-.62.43a12.26,12.26,0,0,0-1.87,2.63,5.4,5.4,0,0,0-.69,2.4,2.13,2.13,0,0,0,.28,1.15.83.83,0,0,0,.72.46,3.17,3.17,0,0,0,1.38-.79,21,21,0,0,0,2.26-2.08l.35-.28Z" transform="translate(-221.81 -119.2)"/>
    <path class="cls-14" d="M672.27,563.93l0,.26c0,.14,0,.35-.05.62a8.49,8.49,0,0,1-.14,1,1.9,1.9,0,0,1-.27.66,4.36,4.36,0,0,1-.48.55,2.77,2.77,0,0,1-1.87.85,1.24,1.24,0,0,1-1.12-.56,3.42,3.42,0,0,1-.36-1.8,16.21,16.21,0,0,1,.22-2.44,23.81,23.81,0,0,1,.54-2.61l.1-.33a1,1,0,0,1,.08-.32,16.5,16.5,0,0,1,.86-2.56,4.29,4.29,0,0,1,.95-1.34,1.76,1.76,0,0,1,1.12-.39c.6,0,1,.36,1.09,1.09a2.36,2.36,0,0,0,.34-.36,4.72,4.72,0,0,1,.57-.59.86.86,0,0,1,.47-.14c.73,0,1.1.72,1.1,2.16a10.15,10.15,0,0,1-.26,2.28,6.79,6.79,0,0,1-.64,1.8c-.26.47-.51.7-.77.7s-.42-.53-.42-1.59a7.49,7.49,0,0,0-.09-1.31,1.81,1.81,0,0,0-.3-.74,9.53,9.53,0,0,0-.5,3.25C672.33,563.06,672.29,563.68,672.27,563.93Z" transform="translate(-221.81 -119.2)"/>
    <path class="cls-14" d="M683.25,558.31a25.41,25.41,0,0,0,.85-3,12.11,12.11,0,0,0,.34-2.41c0-.15,0-.23-.12-.23s-.38.3-.72.91a13.38,13.38,0,0,0-.85,1.85c-.49,1.38-.87,2.52-1.13,3.43a18.77,18.77,0,0,0-.55,2.29,10.8,10.8,0,0,0-.16,1.89,2.81,2.81,0,0,0,.19,1.21.62.62,0,0,0,.59.38,2.82,2.82,0,0,0,1.56-.62,6.85,6.85,0,0,0,1.56-1.61c.36-.5.65-.75.85-.75s.39.2.39.62a4.75,4.75,0,0,1-.85,2.65A6.47,6.47,0,0,1,683,567a5.2,5.2,0,0,1-2.73.81,3.78,3.78,0,0,1-2.79-1.08,3.81,3.81,0,0,1-1.08-2.82,11,11,0,0,1,.61-3.33,23.34,23.34,0,0,1,1.63-3.85,24.24,24.24,0,0,1,2.24-3.51,11.4,11.4,0,0,1,2.41-2.41,2.72,2.72,0,0,1,1.64-.55,2,2,0,0,1,1.24.43,2.68,2.68,0,0,1,.86,1.19,4.33,4.33,0,0,1,.31,1.68,10.2,10.2,0,0,1-.78,3.9,10,10,0,0,1-2.18,3.3,7.2,7.2,0,0,1-1.27,1.06,2.11,2.11,0,0,1-1.06.38c-.3,0-.45-.12-.45-.34a1.89,1.89,0,0,1,.33-.73,14.74,14.74,0,0,0,1-2.11c0-.09.07-.19.12-.29Z" transform="translate(-221.81 -119.2)"/>
    <path class="cls-14" d="M697,564.11v0l0,0a24.4,24.4,0,0,1-2.17,2.27A9.5,9.5,0,0,1,693,567.7a3.29,3.29,0,0,1-1.53.45,3.13,3.13,0,0,1-2.35-1,3.29,3.29,0,0,1-.93-2.41,6.16,6.16,0,0,1,.46-2.13,10.7,10.7,0,0,1,1.26-2.41,12.17,12.17,0,0,1,3.35-3.28,7.28,7.28,0,0,1,4-1.38,4.85,4.85,0,0,1,2.67.67,1.94,1.94,0,0,1,1.05,1.68,3,3,0,0,1-.52,1.58,1.53,1.53,0,0,1,.86.15c.12.1.18.32.18.68,0,0,0,.14-.06.52,0,.84-.08,1.62-.08,2.35,0,.38,0,.67,0,.86s0,.42,0,.67.05.46.08.61a6.29,6.29,0,0,0,.33,1.18,5.81,5.81,0,0,1-1.46,1.1,3.07,3.07,0,0,1-1.42.35c-1.31,0-2-1.09-2-3.27A4.54,4.54,0,0,1,697,564.11Zm.76-2.91-.24.08a5.58,5.58,0,0,1-1.32.25c-.33,0-.5-.08-.5-.25a1.57,1.57,0,0,1,.21-.47,3.78,3.78,0,0,0,.71-2,2.66,2.66,0,0,0-.19-1q-.2-.45-.42-.45c-.14,0-.34.14-.62.43a12,12,0,0,0-1.88,2.63,5.4,5.4,0,0,0-.69,2.4,2.13,2.13,0,0,0,.29,1.15.83.83,0,0,0,.71.46,3.12,3.12,0,0,0,1.38-.79,21.92,21.92,0,0,0,2.27-2.08l.34-.28Z" transform="translate(-221.81 -119.2)"/>
    <path class="cls-14" d="M705.06,555.53l.05-.15a17.87,17.87,0,0,1,1.45-3.33,2.72,2.72,0,0,1,.81-.81,3.47,3.47,0,0,1,1.85-.63,1.18,1.18,0,0,1,.77.23.84.84,0,0,1,.27.66,4.18,4.18,0,0,1-.38,1.2,17.8,17.8,0,0,0-1,2.8,2.61,2.61,0,0,1,.42.08,3,3,0,0,1,1,.26.57.57,0,0,1,.24.53,2.36,2.36,0,0,1-.34,1.24,2.13,2.13,0,0,1-.9.84,4.44,4.44,0,0,1-1.36.25c-.11.33-.23.79-.37,1.36s-.15,1.21-.25,2.11a6.19,6.19,0,0,0-.07.93,1.74,1.74,0,0,0,1.94,2h.11c.16,0,.23,0,.23.08s-.14.36-.43.68a5.46,5.46,0,0,1-1,.85,4.81,4.81,0,0,1-1.22.61,3.77,3.77,0,0,1-1.2.23,2.83,2.83,0,0,1-2.17-.9,3.41,3.41,0,0,1-.83-2.39,8.82,8.82,0,0,1,.22-1.66c.15-.69.38-1.6.7-2.76.05-.2.1-.41.16-.64s.09-.36.1-.4a1.1,1.1,0,0,1-.72-.21.9.9,0,0,1-.22-.66,2.26,2.26,0,0,1,.62-1.51A2.58,2.58,0,0,1,705.06,555.53Z" transform="translate(-221.81 -119.2)"/>
    <path class="cls-14" d="M720.07,555q1.89,0,1.89.45c0,.34-.29.52-.85.54a4.19,4.19,0,0,0-1.92.59,5.42,5.42,0,0,0-1.58,1.42,7.18,7.18,0,0,0-1.08,2,7.26,7.26,0,0,0-.39,2.39,3.55,3.55,0,0,0,.65,2.22,2,2,0,0,0,1.69.85,2.09,2.09,0,0,0,1.69-1,3.82,3.82,0,0,0,.72-2.31,4.67,4.67,0,0,0-.45-2,4.28,4.28,0,0,0-1.31-1.59c-.25-.19-.37-.33-.37-.42s.17-.3.52-.55a6.18,6.18,0,0,1,1.31-.66,3.77,3.77,0,0,1,1.21-.26,2.11,2.11,0,0,1,1.09.3,2.92,2.92,0,0,1,.91.85,4.26,4.26,0,0,1,.6,1.27,5.34,5.34,0,0,1,.21,1.53,7.34,7.34,0,0,1-.51,2.66,6,6,0,0,1-1.33,2.12,8.42,8.42,0,0,1-2.57,1.68,7.13,7.13,0,0,1-2.86.66,7.79,7.79,0,0,1-2.63-.46,5.61,5.61,0,0,1-2.06-1.2,3.9,3.9,0,0,1-1-2.89,6.63,6.63,0,0,1,.72-2.94,9.68,9.68,0,0,1,2-2.67,10.25,10.25,0,0,1,2.73-1.9A7.11,7.11,0,0,1,720.07,555Z" transform="translate(-221.81 -119.2)"/>
    <path class="cls-14" d="M734.46,567.93a1.56,1.56,0,0,1-1-.52,3,3,0,0,1-.67-1.1,5,5,0,0,1-.19-1.53,16.92,16.92,0,0,1,.78-4.73,10.94,10.94,0,0,1,1.77-3.81,1.32,1.32,0,0,1,1.09-.5,1.38,1.38,0,0,1,1.19.68,3.08,3.08,0,0,1,.45,1.76,18.47,18.47,0,0,1-.47,3.78,35.36,35.36,0,0,1-1.3,4.5,2.53,2.53,0,0,1-.81,1.27,1.51,1.51,0,0,1-.78.2ZM736,555.17c-.8,0-1.2-.5-1.2-1.43a4.69,4.69,0,0,1,.35-1.62,3.92,3.92,0,0,1,.79-1.37,1.54,1.54,0,0,1,.47-.34,1.47,1.47,0,0,1,.6-.1,1.21,1.21,0,0,1,.93.31,1.47,1.47,0,0,1,.3,1,4.58,4.58,0,0,1-.31,1.7,3.51,3.51,0,0,1-.83,1.31,1.56,1.56,0,0,1-1.07.5Z" transform="translate(-221.81 -119.2)"/>
    <path class="cls-14" d="M741.51,555.53l0-.15a17.87,17.87,0,0,1,1.45-3.33,2.61,2.61,0,0,1,.81-.81,3.44,3.44,0,0,1,1.84-.63,1.19,1.19,0,0,1,.78.23.84.84,0,0,1,.27.66,4,4,0,0,1-.39,1.2,18.76,18.76,0,0,0-1,2.8,2.61,2.61,0,0,1,.42.08,3,3,0,0,1,1,.26.57.57,0,0,1,.24.53,2.37,2.37,0,0,1-.35,1.24,2,2,0,0,1-.9.84,4.3,4.3,0,0,1-1.35.25c-.11.33-.23.79-.37,1.36s-.16,1.21-.25,2.11a6.19,6.19,0,0,0-.07.93,1.74,1.74,0,0,0,1.94,2h.11c.15,0,.23,0,.23.08s-.14.36-.43.68a5.84,5.84,0,0,1-1,.85,5,5,0,0,1-1.22.61,3.77,3.77,0,0,1-1.2.23,2.83,2.83,0,0,1-2.17-.9,3.41,3.41,0,0,1-.83-2.39,8.06,8.06,0,0,1,.22-1.66c.15-.69.38-1.6.69-2.76,0-.2.11-.41.17-.64s.09-.36.1-.4a1.1,1.1,0,0,1-.72-.21.86.86,0,0,1-.22-.66,2.26,2.26,0,0,1,.62-1.51A2.58,2.58,0,0,1,741.51,555.53Z" transform="translate(-221.81 -119.2)"/>
    <path class="cls-14" d="M756.74,564.11v0l0,0a25.82,25.82,0,0,1-2.16,2.27,9.54,9.54,0,0,1-1.82,1.32,3.23,3.23,0,0,1-1.53.45,3.13,3.13,0,0,1-2.35-1,3.28,3.28,0,0,1-.92-2.41,6.36,6.36,0,0,1,.45-2.13,11.58,11.58,0,0,1,1.26-2.41A12.46,12.46,0,0,1,753,557a7.31,7.31,0,0,1,4-1.38,4.86,4.86,0,0,1,2.68.67,2,2,0,0,1,1,1.68,3,3,0,0,1-.52,1.58,1.57,1.57,0,0,1,.87.15.94.94,0,0,1,.17.68s0,.14-.06.52c0,.84-.08,1.62-.08,2.35,0,.38,0,.67,0,.86s0,.42,0,.67.05.46.07.61a6.29,6.29,0,0,0,.33,1.18,5.64,5.64,0,0,1-1.46,1.1,3,3,0,0,1-1.42.35q-1.95,0-1.95-3.27C756.72,564.45,756.73,564.25,756.74,564.11Zm.76-2.91-.24.08a5.58,5.58,0,0,1-1.32.25c-.33,0-.49-.08-.49-.25a1.43,1.43,0,0,1,.2-.47,3.78,3.78,0,0,0,.71-2,2.48,2.48,0,0,0-.19-1q-.2-.45-.42-.45c-.13,0-.34.14-.62.43a11.92,11.92,0,0,0-1.87,2.63,5.4,5.4,0,0,0-.69,2.4,2.13,2.13,0,0,0,.28,1.15.83.83,0,0,0,.72.46,3.22,3.22,0,0,0,1.38-.79,21.94,21.94,0,0,0,2.26-2.08l.34-.28Z" transform="translate(-221.81 -119.2)"/>
    <path class="cls-14" d="M769.25,558.31a25.41,25.41,0,0,0,.85-3,12.11,12.11,0,0,0,.34-2.41c0-.15,0-.23-.13-.23s-.37.3-.71.91a12.3,12.3,0,0,0-.85,1.85c-.49,1.38-.87,2.52-1.13,3.43a21.2,21.2,0,0,0-.56,2.29,11.85,11.85,0,0,0-.15,1.89,3,3,0,0,0,.18,1.21.64.64,0,0,0,.6.38,2.82,2.82,0,0,0,1.56-.62,6.85,6.85,0,0,0,1.56-1.61c.36-.5.65-.75.85-.75s.39.2.39.62a4.75,4.75,0,0,1-.85,2.65A6.57,6.57,0,0,1,769,567a5.2,5.2,0,0,1-2.73.81,3.7,3.7,0,0,1-3.88-3.9,11.36,11.36,0,0,1,.61-3.33,25.28,25.28,0,0,1,3.88-7.36,11.4,11.4,0,0,1,2.41-2.41,2.7,2.7,0,0,1,1.64-.55,2,2,0,0,1,1.24.43,2.68,2.68,0,0,1,.86,1.19,4.33,4.33,0,0,1,.31,1.68,10.2,10.2,0,0,1-.78,3.9,10,10,0,0,1-2.18,3.3,7.2,7.2,0,0,1-1.27,1.06,2.14,2.14,0,0,1-1.07.38c-.29,0-.44-.12-.44-.34a1.89,1.89,0,0,1,.33-.73,14.74,14.74,0,0,0,1-2.11c0-.09.07-.19.11-.29S769.19,558.49,769.25,558.31Z" transform="translate(-221.81 -119.2)"/>
    <path class="cls-14" d="M776.16,567.93a1.58,1.58,0,0,1-1-.52,3,3,0,0,1-.66-1.1,4.93,4.93,0,0,1-.2-1.53,16.92,16.92,0,0,1,.78-4.73,10.94,10.94,0,0,1,1.77-3.81,1.33,1.33,0,0,1,1.09-.5,1.37,1.37,0,0,1,1.19.68,3.08,3.08,0,0,1,.45,1.76,18.39,18.39,0,0,1-.46,3.78,35.47,35.47,0,0,1-1.31,4.5,2.53,2.53,0,0,1-.81,1.27,1.5,1.5,0,0,1-.77.2Zm1.53-12.76c-.8,0-1.19-.5-1.19-1.43a4.66,4.66,0,0,1,.34-1.62,3.92,3.92,0,0,1,.8-1.37,1.27,1.27,0,0,1,1.07-.44,1.23,1.23,0,0,1,.93.31,1.47,1.47,0,0,1,.3,1,4.79,4.79,0,0,1-.31,1.7,3.53,3.53,0,0,1-.84,1.31,1.54,1.54,0,0,1-1.06.5Z" transform="translate(-221.81 -119.2)"/>
    <path class="cls-14" d="M789.5,564.11v0l0,0a24.4,24.4,0,0,1-2.17,2.27,9.83,9.83,0,0,1-1.81,1.32,3.29,3.29,0,0,1-1.53.45,3.13,3.13,0,0,1-2.35-1,3.29,3.29,0,0,1-.93-2.41,6.16,6.16,0,0,1,.46-2.13,11.08,11.08,0,0,1,1.25-2.41,12.35,12.35,0,0,1,3.36-3.28,7.26,7.26,0,0,1,4-1.38,4.85,4.85,0,0,1,2.67.67,1.94,1.94,0,0,1,1.05,1.68,3,3,0,0,1-.52,1.58,1.56,1.56,0,0,1,.86.15c.12.1.18.32.18.68,0,0,0,.14-.07.52,0,.84-.07,1.62-.07,2.35,0,.38,0,.67,0,.86s0,.42,0,.67.05.46.08.61a5.62,5.62,0,0,0,.33,1.18,6,6,0,0,1-1.46,1.1,3.07,3.07,0,0,1-1.42.35c-1.31,0-2-1.09-2-3.27A4.54,4.54,0,0,1,789.5,564.11Zm.76-2.91-.24.08a5.58,5.58,0,0,1-1.32.25c-.33,0-.5-.08-.5-.25a1.72,1.72,0,0,1,.2-.47,3.72,3.72,0,0,0,.72-2,2.48,2.48,0,0,0-.2-1c-.12-.3-.26-.45-.41-.45s-.35.14-.63.43a12.26,12.26,0,0,0-1.87,2.63,5.4,5.4,0,0,0-.69,2.4,2.22,2.22,0,0,0,.28,1.15.84.84,0,0,0,.72.46,3.12,3.12,0,0,0,1.38-.79,21.92,21.92,0,0,0,2.27-2.08l.34-.28Z" transform="translate(-221.81 -119.2)"/>
    <path class="cls-14" d="M801.11,561.11l.76-.89c.78-.86,1.39-1.5,1.84-1.92a5.88,5.88,0,0,1,1.22-.91,2.43,2.43,0,0,1,1.1-.28,1.48,1.48,0,0,1,1.26.49,2.8,2.8,0,0,1,.37,1.67,14.3,14.3,0,0,1-.1,1.46,20.89,20.89,0,0,0-.15,2.41,12.68,12.68,0,0,0,.13,2.06,6.08,6.08,0,0,0,.26,1,2.58,2.58,0,0,1,.13.62.39.39,0,0,1-.15.32,3.9,3.9,0,0,1-1,.59,3.18,3.18,0,0,1-1.1.26,2,2,0,0,1-1.31-.5,3.17,3.17,0,0,1-.91-1.37,5.55,5.55,0,0,1-.33-2,10.88,10.88,0,0,1,.16-1.74l-.06,0c-.36.41-.65.73-.88,1l-.63.68c-.94,1.08-1.75,2.06-2.41,2.93-.25.34-.48.63-.7.89a1.48,1.48,0,0,1-1.06.47,1.65,1.65,0,0,1-1.32-.61,2.38,2.38,0,0,1-.51-1.58,10,10,0,0,1,.14-1.46c.09-.57.22-1.19.37-1.84s.35-1.33.56-2,.45-1.35.71-2a7.14,7.14,0,0,1,1.42-2.44,1.88,1.88,0,0,1,1.38-.57c.88,0,1.32.57,1.32,1.72a17.81,17.81,0,0,1-.52,3.6Z" transform="translate(-221.81 -119.2)"/>
    <path class="cls-14" d="M817.39,555q1.89,0,1.89.45c0,.34-.28.52-.85.54a4.19,4.19,0,0,0-1.92.59,5.42,5.42,0,0,0-1.58,1.42,7.18,7.18,0,0,0-1.08,2,7.26,7.26,0,0,0-.39,2.39,3.55,3.55,0,0,0,.65,2.22,2,2,0,0,0,1.69.85,2.08,2.08,0,0,0,1.69-1,3.82,3.82,0,0,0,.72-2.31,4.67,4.67,0,0,0-.45-2,4.28,4.28,0,0,0-1.31-1.59c-.25-.19-.37-.33-.37-.42s.17-.3.52-.55a6.43,6.43,0,0,1,1.31-.66,3.82,3.82,0,0,1,1.22-.26,2.1,2.1,0,0,1,1.08.3,2.92,2.92,0,0,1,.91.85,4.26,4.26,0,0,1,.6,1.27,5.34,5.34,0,0,1,.21,1.53,7.34,7.34,0,0,1-.51,2.66,5.83,5.83,0,0,1-1.33,2.12,8.42,8.42,0,0,1-2.57,1.68,7.13,7.13,0,0,1-2.86.66,7.7,7.7,0,0,1-2.62-.46,5.57,5.57,0,0,1-2.07-1.2,3.94,3.94,0,0,1-1-2.89,6.63,6.63,0,0,1,.72-2.94,9.68,9.68,0,0,1,2-2.67,10.25,10.25,0,0,1,2.73-1.9A7.15,7.15,0,0,1,817.39,555Z" transform="translate(-221.81 -119.2)"/>
  </g>
</svg>
